# xmcd
#
# Track frame offsets:
#	150
#	12865
#	24586
#	38769
#	52333
#	69506
#	85425
#	99941
#	113127
#	125221
#	138471
#	148770
#	161490
#
# Disc length: 2380 seconds
#
# Revision: 1
# Processed by: cddbd v1.5.1PL0 Copyright (c) Steve Scherf et al.
# Submitted via: audiograbber 1.82.01
#
DISCID=b8094a0d
DTITLE=Tchê Guri - Uma Chuva de Alegria
DYEAR=2004
DGENRE=Gaúchos
TTITLE0=Uma Chuva de Alegria
TTITLE1=Alaquitanga (Part.Frank Aguiar)
TTITLE2=Pega na Sanfona
TTITLE3=Chuva de Verão (Part. Gian and Giovani)
TTITLE4=Carona na 101
TTITLE5=Entreguei Meu Coração (Part.Marlon and Maicon)
TTITLE6=Alegria
TTITLE7=O Amor
TTITLE8=Prenda
TTITLE9=Menina Linda
TTITLE10=Vem Dançar a Vaneira
TTITLE11=Tirou Minha Tranquilidade
TTITLE12=Pra Você
EXTD=
EXTT0=
EXTT1=
EXTT2=
EXTT3=
EXTT4=
EXTT5=
EXTT6=
EXTT7=
EXTT8=
EXTT9=
EXTT10=
EXTT11=
EXTT12=
PLAYORDER=
